<svg width="135" height="130" viewBox="0 0 135 130" fill="none" xmlns="http://www.w3.org/2000/svg">
<g filter="url(#filter0_d_1304_127)">
<path d="M89.9999 63.0048C89.9999 59.8805 86.1008 56.9197 80.1228 55.0835C81.5024 48.9696 80.8892 44.1053 78.1877 42.548C77.5649 42.1827 76.8369 42.0096 76.0417 42.0096V44.1534C76.4824 44.1534 76.8369 44.2399 77.1338 44.4033C78.4367 45.1531 79.002 48.0082 78.5613 51.6805C78.4559 52.5841 78.2835 53.5358 78.0727 54.5068C76.195 54.0453 74.1449 53.6896 71.9893 53.4589C70.696 51.6805 69.3548 50.0655 68.004 48.6523C71.1271 45.7395 74.0586 44.1437 76.0513 44.1437V42C73.4168 42 69.9679 43.8842 66.4808 47.1527C62.9936 43.9034 59.5448 42.0385 56.9103 42.0385V44.1822C58.8934 44.1822 61.8344 45.7684 64.9576 48.6619C63.6163 50.0751 62.2751 51.6805 61.001 53.4589C58.8359 53.6896 56.7857 54.0453 54.908 54.5164C54.6877 53.555 54.5248 52.6226 54.4099 51.7285C53.9596 48.0563 54.5153 45.2012 55.8086 44.4417C56.096 44.2687 56.4696 44.1918 56.9103 44.1918V42.0481C56.1056 42.0481 55.3775 42.2211 54.7452 42.5864C52.0532 44.1437 51.4496 48.9984 52.8387 55.0932C46.8799 56.9389 43 59.8901 43 63.0048C43 66.1291 46.8991 69.0899 52.8771 70.9261C51.4975 77.0401 52.1107 81.9043 54.8122 83.4617C55.435 83.827 56.163 84 56.9678 84C59.6023 84 63.0511 82.1158 66.5383 78.8473C70.0254 82.0966 73.4742 83.9615 76.1088 83.9615C76.9135 83.9615 77.6416 83.7885 78.2739 83.4232C80.9659 81.8659 81.5694 77.0112 80.1803 70.9165C86.12 69.0803 89.9999 66.1195 89.9999 63.0048ZM77.5266 56.5928C77.1722 57.8329 76.7315 59.1115 76.2333 60.39C75.8405 59.621 75.4286 58.8519 74.9783 58.0829C74.5376 57.3138 74.0682 56.564 73.5988 55.8334C74.9592 56.0352 76.2716 56.2852 77.5266 56.5928ZM73.1389 66.8309C72.3917 68.1286 71.6253 69.3591 70.8301 70.5031C69.4027 70.6281 67.9561 70.6954 66.4999 70.6954C65.0534 70.6954 63.6068 70.6281 62.1889 70.5127C61.3938 69.3687 60.6178 68.1479 59.8705 66.8597C59.1424 65.6004 58.4814 64.3218 57.8779 63.0336C58.4718 61.7455 59.1424 60.4573 59.861 59.198C60.6082 57.9002 61.3746 56.6697 62.1698 55.5257C63.5972 55.4008 65.0438 55.3335 66.4999 55.3335C67.9465 55.3335 69.3931 55.4008 70.811 55.5161C71.6061 56.6601 72.3821 57.881 73.1294 59.1691C73.8575 60.4285 74.5185 61.707 75.122 62.9952C74.5185 64.2834 73.8575 65.5715 73.1389 66.8309ZM76.2333 65.5811C76.7506 66.8693 77.1913 68.1575 77.5554 69.4072C76.3004 69.7148 74.9783 69.9744 73.6084 70.1762C74.0778 69.436 74.5472 68.6766 74.9879 67.8979C75.4286 67.1289 75.8405 66.3502 76.2333 65.5811ZM66.5191 75.8384C65.6282 74.9155 64.7372 73.8869 63.8558 72.7622C64.7181 72.8006 65.5994 72.8295 66.4904 72.8295C67.3909 72.8295 68.2818 72.8103 69.1536 72.7622C68.2914 73.8869 67.4005 74.9155 66.5191 75.8384ZM59.3915 70.1762C58.0312 69.9744 56.7187 69.7244 55.4637 69.4168C55.8182 68.1767 56.2588 66.8981 56.757 65.6196C57.1498 66.3886 57.5617 67.1577 58.012 67.9268C58.4623 68.6958 58.9221 69.4456 59.3915 70.1762ZM66.4712 50.1712C67.3622 51.0941 68.2531 52.1227 69.1345 53.2474C68.2723 53.209 67.3909 53.1801 66.4999 53.1801C65.5994 53.1801 64.7085 53.1994 63.8367 53.2474C64.6989 52.1227 65.5898 51.0941 66.4712 50.1712ZM59.3819 55.8334C58.9125 56.5736 58.4431 57.333 58.0024 58.1117C57.5617 58.8808 57.1498 59.6498 56.757 60.4189C56.2397 59.1307 55.799 57.8425 55.435 56.5928C56.6899 56.2948 58.012 56.0352 59.3819 55.8334ZM50.712 67.8691C47.3206 66.4175 45.1268 64.5141 45.1268 63.0048C45.1268 61.4955 47.3206 59.5825 50.712 58.1405C51.5359 57.7848 52.4364 57.4676 53.3657 57.1696C53.9117 59.0538 54.6302 61.0149 55.5212 63.024C54.6398 65.0236 53.9309 66.975 53.3944 68.8496C52.446 68.5516 51.5454 68.2248 50.712 67.8691ZM55.8661 81.6063C54.5632 80.8565 53.9979 78.0014 54.4386 74.3291C54.544 73.4255 54.7164 72.4738 54.9272 71.5029C56.8049 71.9643 58.855 72.32 61.0106 72.5507C62.3039 74.3291 63.6451 75.9441 64.9959 77.3573C61.8728 80.2701 58.9413 81.8659 56.9486 81.8659C56.5175 81.8563 56.1535 81.7697 55.8661 81.6063ZM78.59 74.2811C79.0403 77.9533 78.4846 80.8084 77.1913 81.5679C76.9039 81.7409 76.5303 81.8178 76.0896 81.8178C74.1065 81.8178 71.1655 80.2316 68.0423 77.3381C69.3836 75.9249 70.7248 74.3195 71.9989 72.5411C74.164 72.3104 76.2142 71.9547 78.0919 71.4836C78.3122 72.4546 78.4846 73.387 78.59 74.2811ZM82.2784 67.8691C81.4545 68.2248 80.5539 68.542 79.6247 68.84C79.0786 66.9558 78.3601 64.9947 77.4691 62.9856C78.3505 60.986 79.0594 59.0346 79.5959 57.16C80.5444 57.458 81.4449 57.7848 82.2879 58.1405C85.6793 59.5921 87.8731 61.4955 87.8731 63.0048C87.8635 64.5141 85.6697 66.4271 82.2784 67.8691Z" fill="#61DAFB"/>
<path d="M66.4904 67.3978C68.9084 67.3978 70.8685 65.4309 70.8685 63.0046C70.8685 60.5782 68.9084 58.6113 66.4904 58.6113C64.0724 58.6113 62.1123 60.5782 62.1123 63.0046C62.1123 65.4309 64.0724 67.3978 66.4904 67.3978Z" fill="#61DAFB"/>
</g>
<defs>
<filter id="filter0_d_1304_127" x="0" y="0" width="135" height="130" filterUnits="userSpaceOnUse" color-interpolation-filters="sRGB">
<feFlood flood-opacity="0" result="BackgroundImageFix"/>
<feColorMatrix in="SourceAlpha" type="matrix" values="0 0 0 0 0 0 0 0 0 0 0 0 0 0 0 0 0 0 127 0" result="hardAlpha"/>
<feOffset dx="1" dy="2"/>
<feGaussianBlur stdDeviation="22"/>
<feColorMatrix type="matrix" values="0 0 0 0 0 0 0 0 0 0 0 0 0 0 0 0 0 0 0.15 0"/>
<feBlend mode="normal" in2="BackgroundImageFix" result="effect1_dropShadow_1304_127"/>
<feBlend mode="normal" in="SourceGraphic" in2="effect1_dropShadow_1304_127" result="shape"/>
</filter>
</defs>
</svg>
