<svg width="53" height="53" viewBox="0 0 53 53" fill="none" xmlns="http://www.w3.org/2000/svg">
<g clip-path="url(#clip0_1304_129)">
<g filter="url(#filter0_d_1304_129)">
<path fill-rule="evenodd" clip-rule="evenodd" d="M39.624 13.2681L40.446 14.3558C40.6618 14.6428 40.6079 15.0542 40.3222 15.2711L39.4494 15.9377C39.6081 16.3619 39.7097 16.8148 39.7509 17.2773L40.7443 17.4145C41.0998 17.4623 41.3474 17.794 41.2998 18.1512L41.1157 19.5068C41.0681 19.864 40.738 20.1159 40.3825 20.0649L39.2971 19.915C39.1035 20.3392 38.8559 20.7283 38.5639 21.076L39.1733 21.8797C39.3891 22.1668 39.332 22.5782 39.0463 22.7951L37.9641 23.6212C37.6784 23.8381 37.269 23.7807 37.0532 23.4968L36.3899 22.6197C35.9646 22.7792 35.5171 22.8812 35.0537 22.9227L34.9172 23.921C34.8696 24.2782 34.5395 24.527 34.184 24.4791L32.8352 24.2942C32.4797 24.2463 32.2321 23.9146 32.2797 23.5574L32.4289 22.4666C32.01 22.272 31.6196 22.0233 31.2736 21.733L30.4738 22.3422C30.1882 22.5591 29.7788 22.5049 29.5629 22.2178L28.7409 21.1302C28.5251 20.8431 28.5791 20.4317 28.8647 20.2148L29.7375 19.5482C29.5788 19.1208 29.4773 18.6711 29.436 18.2086L28.4426 18.0715C28.0871 18.0236 27.8364 17.6919 27.8872 17.3347L28.0713 15.9792C28.122 15.622 28.4489 15.3732 28.8044 15.421L29.8899 15.5709C30.0835 15.1499 30.331 14.7576 30.6198 14.41L30.0136 13.6062C29.7978 13.3224 29.8518 12.9109 30.1374 12.694L31.2197 11.868C31.5053 11.6511 31.9148 11.7053 32.1306 11.9924L32.7939 12.8695C33.216 12.71 33.6667 12.6079 34.1269 12.5665L34.2634 11.5682C34.311 11.2109 34.6411 10.959 34.9965 11.0068L36.3454 11.1918C36.7009 11.2396 36.9516 11.5713 36.9008 11.9286L36.7517 13.0194C37.1738 13.2139 37.561 13.4627 37.9101 13.7561L38.7099 13.1469C38.9956 12.9269 39.405 12.9811 39.624 13.2681ZM16.417 32.4082V27.1455H19.1147C19.6162 27.1455 19.997 27.187 20.2605 27.2763C20.5239 27.3624 20.7397 27.5219 20.8984 27.7547C21.0603 27.9908 21.1428 28.2746 21.1428 28.6095C21.1428 28.8998 21.0793 29.1549 20.9555 29.3654C20.8318 29.5791 20.6604 29.7513 20.4445 29.8821C20.3081 29.965 20.1176 30.0352 19.8764 30.0894C20.07 30.1564 20.2097 30.217 20.2954 30.284C20.3557 30.3286 20.4414 30.4211 20.5525 30.5615C20.6635 30.7018 20.7397 30.8134 20.7778 30.89L21.5649 32.4114H19.7368L18.8735 30.8071C18.7624 30.5997 18.6672 30.4626 18.5815 30.402C18.4641 30.3223 18.3308 30.2808 18.1848 30.2808H18.042V32.4114H16.417V32.4082ZM22.1235 41.5715H19.102L18.6672 43.0004H15.9441L19.1909 34.3282H22.1108L25.3449 43.0004H22.552L22.1235 41.5715ZM21.5586 39.6929L20.6159 36.5736L19.6701 39.6929H21.5586ZM25.9734 34.3282H30.4104C31.3784 34.3282 32.102 34.5579 32.5813 35.0204C33.0605 35.4828 33.3017 36.1431 33.3017 36.9946C33.3017 37.8718 33.0383 38.5575 32.5146 39.0519C31.9909 39.5462 31.188 39.7918 30.112 39.7918H28.6489V43.0004H25.9734V34.3282V34.3282ZM28.6489 38.0344H29.3059C29.8232 38.0344 30.1882 37.9451 30.3977 37.7633C30.6071 37.5847 30.7119 37.3519 30.7119 37.0744C30.7119 36.8033 30.6198 36.5704 30.4389 36.3823C30.258 36.1941 29.9152 36.0984 29.4138 36.0984H28.6489V38.0344V38.0344ZM34.3808 34.3282H37.0564V43.0004H34.3808V34.3282V34.3282ZM18.042 29.2825H18.7243C18.7973 29.2825 18.9402 29.257 19.1528 29.2091C19.2607 29.1868 19.3496 29.1326 19.4162 29.0433C19.486 28.954 19.5178 28.8519 19.5178 28.7371C19.5178 28.5681 19.4638 28.4341 19.3559 28.3448C19.248 28.2523 19.0481 28.2076 18.7529 28.2076H18.042V29.2825ZM21.8759 27.1455H26.2082V28.2682H23.5009V29.1071H26.0114V30.1787H23.5009V31.2153H26.2876V32.405H21.8759V27.1455ZM26.6716 30.6667L28.2077 30.571C28.2395 30.823 28.3093 31.0112 28.4109 31.142C28.5791 31.3525 28.8171 31.4609 29.125 31.4609C29.3535 31.4609 29.5344 31.4067 29.6582 31.2982C29.7819 31.1898 29.8454 31.0622 29.8454 30.9187C29.8454 30.7815 29.7851 30.6603 29.6677 30.5519C29.5503 30.4435 29.2741 30.3446 28.8393 30.2457C28.1316 30.0862 27.6269 29.8725 27.3222 29.6078C27.0175 29.3431 26.8652 29.005 26.8652 28.5936C26.8652 28.3225 26.9445 28.0673 27.1001 27.8281C27.2556 27.5889 27.4904 27.3975 27.8047 27.2604C28.1189 27.1232 28.5473 27.0562 29.0932 27.0562C29.7629 27.0562 30.2707 27.1806 30.623 27.4326C30.9721 27.6846 31.1816 28.0801 31.2483 28.6287L29.728 28.7211C29.6867 28.4819 29.601 28.3065 29.4741 28.2013C29.344 28.0928 29.163 28.0386 28.9377 28.0386C28.7505 28.0386 28.6076 28.0801 28.5124 28.1598C28.4172 28.2395 28.3696 28.3384 28.3696 28.4532C28.3696 28.5362 28.4109 28.6095 28.487 28.6797C28.5632 28.7467 28.7409 28.8136 29.0266 28.8742C29.7343 29.0273 30.2422 29.1836 30.5468 29.3399C30.8515 29.4962 31.0769 29.6907 31.2133 29.9236C31.353 30.1532 31.4228 30.4148 31.4228 30.7018C31.4228 31.0399 31.3308 31.3493 31.1435 31.6331C30.9594 31.917 30.6992 32.1339 30.3659 32.2806C30.0327 32.4273 29.6137 32.5007 29.1059 32.5007C28.2172 32.5007 27.5984 32.3284 27.2556 31.984C26.9128 31.6331 26.7192 31.1962 26.6716 30.6667ZM31.6577 27.1455H36.5803V28.4469H34.9299V32.4082H33.3112V28.4469H31.6577V27.1455V27.1455ZM26.2114 14.6556C25.6306 14.6109 25.0434 14.6173 24.4626 14.6747C22.6757 14.8469 20.9397 15.5008 19.5051 16.6203C17.8452 17.912 16.5852 19.8448 16.0996 22.406L15.9472 23.2065L15.1538 23.3469C14.3762 23.484 13.6811 23.6722 13.0717 23.9114C12.4814 24.1411 11.9546 24.4249 11.4944 24.7598C11.1262 25.0277 10.8088 25.3275 10.539 25.6529C9.70431 26.6576 9.31711 27.9174 9.32663 29.1932C9.33615 30.4881 9.75509 31.7958 10.5295 32.8707C10.8183 33.2693 11.1516 33.6361 11.5324 33.9551C11.9196 34.2772 12.3545 34.5451 12.8432 34.7461C13.1194 34.8609 13.4145 34.9566 13.7224 35.0331V37.422C13.0876 37.3072 12.5036 37.135 11.9577 36.9085C11.2373 36.6087 10.5993 36.2228 10.0376 35.7507C9.50436 35.3042 9.03781 34.7971 8.64108 34.2453C7.5842 32.7782 7.01291 30.9857 7.00021 29.1996C6.98752 27.3943 7.54611 25.5987 8.75216 24.1443C9.14255 23.6722 9.60275 23.2384 10.1296 22.8557C10.7422 22.4092 11.4436 22.0328 12.237 21.7234C12.7829 21.5097 13.3669 21.3311 13.9826 21.1876C14.6809 18.4 16.1694 16.2535 18.0832 14.764C19.8733 13.3702 22.0283 12.5569 24.2468 12.3432C25.4116 12.2316 26.5922 12.2826 27.7475 12.4995C27.7221 12.6047 27.6999 12.71 27.6872 12.8184L27.684 12.8376C27.6618 13.0194 27.6523 13.2012 27.6618 13.3862C27.4174 13.4818 27.1889 13.6126 26.9826 13.7721L26.9731 13.7785C26.6652 14.0113 26.405 14.3111 26.2114 14.6556ZM43.0041 20.7794C43.1818 20.942 43.3532 21.1111 43.5214 21.2929C43.861 21.6597 44.1816 22.0743 44.4831 22.5368C45.4987 24.106 46.0192 26.2015 45.997 28.2523C45.9748 30.2649 45.4353 32.2678 44.3308 33.7414C43.6103 34.7014 42.6867 35.486 41.5791 36.108C40.8205 36.5354 39.9668 36.8894 39.0368 37.1764V34.7046C39.5383 34.5164 40.0048 34.3059 40.4333 34.0667C41.268 33.5979 41.9504 33.0269 42.4614 32.3412C43.2548 31.2791 43.6452 29.7769 43.6611 28.2363C43.6801 26.6193 43.2866 24.9958 42.5217 23.8157C42.3027 23.4745 42.0615 23.1683 41.8076 22.894C41.7092 22.7887 41.6108 22.6899 41.5092 22.5942C41.5251 22.4347 41.5315 22.272 41.5219 22.1094C41.7663 22.0137 41.9948 21.8829 42.2011 21.7234L42.2107 21.7171C42.5376 21.4651 42.8105 21.1461 43.0041 20.7794ZM34.9553 15.083C36.4184 15.2839 37.4404 16.6394 37.2404 18.1098C37.0405 19.5801 35.6916 20.6103 34.2285 20.4094C32.7653 20.2084 31.7402 18.8529 31.9433 17.3826C32.1464 15.9122 33.4921 14.882 34.9553 15.083Z" fill="#303030"/>
</g>
</g>
<defs>
<filter id="filter0_d_1304_129" x="-36" y="-30.999" width="126.998" height="119.999" filterUnits="userSpaceOnUse" color-interpolation-filters="sRGB">
<feFlood flood-opacity="0" result="BackgroundImageFix"/>
<feColorMatrix in="SourceAlpha" type="matrix" values="0 0 0 0 0 0 0 0 0 0 0 0 0 0 0 0 0 0 127 0" result="hardAlpha"/>
<feOffset dx="1" dy="2"/>
<feGaussianBlur stdDeviation="22"/>
<feColorMatrix type="matrix" values="0 0 0 0 0 0 0 0 0 0 0 0 0 0 0 0 0 0 0.15 0"/>
<feBlend mode="normal" in2="BackgroundImageFix" result="effect1_dropShadow_1304_129"/>
<feBlend mode="normal" in="SourceGraphic" in2="effect1_dropShadow_1304_129" result="shape"/>
</filter>
<clipPath id="clip0_1304_129">
<rect width="39" height="32" fill="white" transform="translate(7 11)"/>
</clipPath>
</defs>
</svg>
